<svg aria-hidden="true" style="width:0;height:0;position:absolute;overflow:hidden" xmlns="http://www.w3.org/2000/svg"><defs><symbol id="icon-Group" viewBox="0 0 34 32"><path fill="#f7fb1f" style="fill:var(--color1,#f7fb1f)" d="m17.231 31.705-2.412-2.412C5.859 21.367.001 16.025.001 9.478.001 4.136 4.136.001 9.478.001c2.929 0 5.858 1.378 7.754 3.618 1.895-2.24 4.825-3.618 7.754-3.618 5.342 0 9.477 4.135 9.477 9.477 0 6.548-5.858 11.889-14.818 19.815l-2.412 2.412z"/></symbol><symbol id="icon-search-2" viewBox="0 0 32 32"><path fill="none" stroke="#fff" style="stroke:var(--color2,#fff)" stroke-linejoin="round" stroke-linecap="round" stroke-width="2.667" d="M14.667 25.333c5.891 0 10.667-4.776 10.667-10.667S20.558 3.999 14.667 3.999 4 8.775 4 14.666s4.776 10.667 10.667 10.667zM28 28.001l-5.8-5.8"/></symbol><symbol id="icon-film" viewBox="0 0 32 32"><path fill="none" stroke="#fff" style="stroke:var(--color2,#fff)" stroke-linejoin="round" stroke-linecap="round" stroke-width="2.667" d="M26.427 2.667H5.574a2.907 2.907 0 0 0-2.907 2.907v20.853a2.907 2.907 0 0 0 2.907 2.907h20.853a2.907 2.907 0 0 0 2.907-2.907V5.574a2.907 2.907 0 0 0-2.907-2.907zM9.333 2.667v26.667M22.667 2.667v26.667M2.667 16h26.667M2.667 9.333h6.667M2.667 22.667h6.667M22.667 22.667h6.667M22.667 9.333h6.667"/></symbol><symbol id="icon-arrow-right2" viewBox="0 0 32 32"><path d="m19.414 27.414 10-10a2 2 0 0 0 0-2.828l-10-10a2 2 0 1 0-2.828 2.828L23.172 14H4a2 2 0 1 0 0 4h19.172l-6.586 6.586c-.39.39-.586.902-.586 1.414s.195 1.024.586 1.414a2 2 0 0 0 2.828 0z"/></symbol><symbol id="icon-arrow-left2" viewBox="0 0 32 32"><path d="m12.586 27.414-10-10a2 2 0 0 1 0-2.828l10-10a2 2 0 1 1 2.828 2.828L8.828 14H28a2 2 0 1 1 0 4H8.828l6.586 6.586c.39.39.586.902.586 1.414s-.195 1.024-.586 1.414a2 2 0 0 1-2.828 0z"/></symbol><symbol id="movie-logo-favicon" viewBox="0 0 32 32"><path fill="red" style="fill:var(--color1,red)" d="M8.254 27.555h15.493a.846.846 0 0 0 .846-.846v-8.876a.846.846 0 0 0-.846-.846H8.254a.846.846 0 0 0-.846.846v8.876c0 .467.379.846.846.846zm.845-8.876H22.9v7.185H9.099v-7.185z"/><path fill="red" style="fill:var(--color1,red)" d="M3.247 1.245H.845a.846.846 0 0 0-.846.846V29.91c0 .467.379.846.846.846h2.402a.846.846 0 0 0 .846-.846v-.413h.947v.413c0 .467.379.846.846.846h20.228a.846.846 0 0 0 .846-.846v-.413h.947v.413c0 .467.379.846.846.846h2.402a.846.846 0 0 0 .846-.846V2.091a.846.846 0 0 0-.846-.846h-2.402a.846.846 0 0 0-.846.846v.332h-.947v-.332a.846.846 0 0 0-.846-.846H5.886a.846.846 0 0 0-.846.846v.332h-.947v-.332a.842.842 0 0 0-.846-.846zm2.639 2.868a.846.846 0 0 0 .846-.846v-.332h18.537v.332c0 .467.379.846.846.846h2.638a.846.846 0 0 0 .846-.846v-.332h.71v26.128h-.71v-.413a.846.846 0 0 0-.846-.846h-2.638a.846.846 0 0 0-.846.846v.413H6.732v-.413a.846.846 0 0 0-.846-.846H3.248a.846.846 0 0 0-.846.846v.413h-.71V2.935h.71v.332c0 .467.379.846.846.846h2.638z"/><path fill="red" style="fill:var(--color1,red)" d="M8.254 15.012h15.493a.846.846 0 0 0 .846-.846V5.29a.846.846 0 0 0-.846-.846H8.254a.846.846 0 0 0-.846.846v8.876c0 .467.379.846.846.846zm.845-8.869H22.9v7.185H9.099V6.143zM3.904 25.417H5.23a.45.45 0 0 0 .447-.447v-1.204a.45.45 0 0 0-.447-.447H3.904a.45.45 0 0 0-.446.447v1.204a.45.45 0 0 0 .446.447zM3.904 19.836H5.23a.45.45 0 0 0 .447-.447v-1.204a.45.45 0 0 0-.447-.447H3.904a.45.45 0 0 0-.446.447v1.204c0 .25.203.447.446.447zM3.904 14.261H5.23a.45.45 0 0 0 .447-.447V12.61a.45.45 0 0 0-.447-.447H3.904a.45.45 0 0 0-.446.447v1.204a.45.45 0 0 0 .446.447zM3.904 8.68H5.23a.45.45 0 0 0 .447-.447V7.029a.45.45 0 0 0-.447-.447H3.904a.45.45 0 0 0-.446.447v1.204c0 .25.203.447.446.447zM26.77 25.417h1.326a.45.45 0 0 0 .447-.447v-1.204a.45.45 0 0 0-.447-.447H26.77a.45.45 0 0 0-.447.447v1.204c0 .244.196.447.447.447zM26.77 19.836h1.326a.45.45 0 0 0 .447-.447v-1.204a.45.45 0 0 0-.447-.447H26.77a.45.45 0 0 0-.447.447v1.204c0 .25.196.447.447.447zM26.77 14.261h1.326a.45.45 0 0 0 .447-.447V12.61a.45.45 0 0 0-.447-.447H26.77a.45.45 0 0 0-.447.447v1.204c0 .244.196.447.447.447zM26.77 8.68h1.326a.45.45 0 0 0 .447-.447V7.029a.45.45 0 0 0-.447-.447H26.77a.45.45 0 0 0-.447.447v1.204c0 .25.196.447.447.447z"/></symbol><symbol id="icon-arrow-left-1" viewBox="0 0 32 32"><path stroke-linejoin="round" stroke-linecap="round" stroke-width="2.667" d="M25.333 16H6.666M16 25.334l-9.333-9.333L16 6.668"/></symbol><symbol id="icon-arrow-left" viewBox="0 0 32 32"><path stroke-linejoin="round" stroke-linecap="round" stroke-width="2.667" d="M6.667 16h18.667M16 25.334l9.333-9.333L16 6.668"/></symbol></defs></svg>