<svg aria-hidden="true" style="width:0;height:0;position:absolute;overflow:hidden" xmlns="http://www.w3.org/2000/svg"><defs><symbol id="icon-Group" viewBox="0 0 34 32"><path fill="#f7fb1f" style="fill:var(--color1,#f7fb1f)" d="m17.231 31.705-2.412-2.412C5.859 21.367.001 16.025.001 9.478.001 4.136 4.136.001 9.478.001c2.929 0 5.858 1.378 7.754 3.618 1.895-2.24 4.825-3.618 7.754-3.618 5.342 0 9.477 4.135 9.477 9.477 0 6.548-5.858 11.889-14.818 19.815l-2.412 2.412z"/></symbol><symbol id="icon-search-2" viewBox="0 0 32 32"><path fill="none" stroke="#fff" style="stroke:var(--color2,#fff)" stroke-linejoin="round" stroke-linecap="round" stroke-width="2.667" d="M14.667 25.333c5.891 0 10.667-4.776 10.667-10.667S20.558 3.999 14.667 3.999 4 8.775 4 14.666s4.776 10.667 10.667 10.667zM28 28.001l-5.8-5.8"/></symbol><symbol id="icon-film" viewBox="0 0 32 32"><path fill="none" stroke="#fff" style="stroke:var(--color2,#fff)" stroke-linejoin="round" stroke-linecap="round" stroke-width="2.667" d="M26.427 2.667H5.574a2.907 2.907 0 0 0-2.907 2.907v20.853a2.907 2.907 0 0 0 2.907 2.907h20.853a2.907 2.907 0 0 0 2.907-2.907V5.574a2.907 2.907 0 0 0-2.907-2.907zM9.333 2.667v26.667M22.667 2.667v26.667M2.667 16h26.667M2.667 9.333h6.667M2.667 22.667h6.667M22.667 22.667h6.667M22.667 9.333h6.667"/></symbol><symbol id="icon-arrow-right2" viewBox="0 0 32 32"><path d="m19.414 27.414 10-10a2 2 0 0 0 0-2.828l-10-10a2 2 0 1 0-2.828 2.828L23.172 14H4a2 2 0 1 0 0 4h19.172l-6.586 6.586c-.39.39-.586.902-.586 1.414s.195 1.024.586 1.414a2 2 0 0 0 2.828 0z"/></symbol><symbol id="icon-arrow-left2" viewBox="0 0 32 32"><path d="m12.586 27.414-10-10a2 2 0 0 1 0-2.828l10-10a2 2 0 1 1 2.828 2.828L8.828 14H28a2 2 0 1 1 0 4H8.828l6.586 6.586c.39.39.586.902.586 1.414s-.195 1.024-.586 1.414a2 2 0 0 1-2.828 0z"/></symbol><symbol id="movie-logo-favicon" viewBox="0 0 32 32"><path fill="red" style="fill:var(--color1,red)" d="M8.254 27.555h15.493a.846.846 0 0 0 .846-.846v-8.876a.846.846 0 0 0-.846-.846H8.254a.846.846 0 0 0-.846.846v8.876c0 .467.379.846.846.846zm.845-8.876H22.9v7.185H9.099v-7.185z"/><path fill="red" style="fill:var(--color1,red)" d="M3.247 1.245H.845a.846.846 0 0 0-.846.846V29.91c0 .467.379.846.846.846h2.402a.846.846 0 0 0 .846-.846v-.413h.947v.413c0 .467.379.846.846.846h20.228a.846.846 0 0 0 .846-.846v-.413h.947v.413c0 .467.379.846.846.846h2.402a.846.846 0 0 0 .846-.846V2.091a.846.846 0 0 0-.846-.846h-2.402a.846.846 0 0 0-.846.846v.332h-.947v-.332a.846.846 0 0 0-.846-.846H5.886a.846.846 0 0 0-.846.846v.332h-.947v-.332a.842.842 0 0 0-.846-.846zm2.639 2.868a.846.846 0 0 0 .846-.846v-.332h18.537v.332c0 .467.379.846.846.846h2.638a.846.846 0 0 0 .846-.846v-.332h.71v26.128h-.71v-.413a.846.846 0 0 0-.846-.846h-2.638a.846.846 0 0 0-.846.846v.413H6.732v-.413a.846.846 0 0 0-.846-.846H3.248a.846.846 0 0 0-.846.846v.413h-.71V2.935h.71v.332c0 .467.379.846.846.846h2.638z"/><path fill="red" style="fill:var(--color1,red)" d="M8.254 15.012h15.493a.846.846 0 0 0 .846-.846V5.29a.846.846 0 0 0-.846-.846H8.254a.846.846 0 0 0-.846.846v8.876c0 .467.379.846.846.846zm.845-8.869H22.9v7.185H9.099V6.143zM3.904 25.417H5.23a.45.45 0 0 0 .447-.447v-1.204a.45.45 0 0 0-.447-.447H3.904a.45.45 0 0 0-.446.447v1.204a.45.45 0 0 0 .446.447zM3.904 19.836H5.23a.45.45 0 0 0 .447-.447v-1.204a.45.45 0 0 0-.447-.447H3.904a.45.45 0 0 0-.446.447v1.204c0 .25.203.447.446.447zM3.904 14.261H5.23a.45.45 0 0 0 .447-.447V12.61a.45.45 0 0 0-.447-.447H3.904a.45.45 0 0 0-.446.447v1.204a.45.45 0 0 0 .446.447zM3.904 8.68H5.23a.45.45 0 0 0 .447-.447V7.029a.45.45 0 0 0-.447-.447H3.904a.45.45 0 0 0-.446.447v1.204c0 .25.203.447.446.447zM26.77 25.417h1.326a.45.45 0 0 0 .447-.447v-1.204a.45.45 0 0 0-.447-.447H26.77a.45.45 0 0 0-.447.447v1.204c0 .244.196.447.447.447zM26.77 19.836h1.326a.45.45 0 0 0 .447-.447v-1.204a.45.45 0 0 0-.447-.447H26.77a.45.45 0 0 0-.447.447v1.204c0 .25.196.447.447.447zM26.77 14.261h1.326a.45.45 0 0 0 .447-.447V12.61a.45.45 0 0 0-.447-.447H26.77a.45.45 0 0 0-.447.447v1.204c0 .244.196.447.447.447zM26.77 8.68h1.326a.45.45 0 0 0 .447-.447V7.029a.45.45 0 0 0-.447-.447H26.77a.45.45 0 0 0-.447.447v1.204c0 .25.196.447.447.447z"/></symbol><symbol id="icon-icons8-sun-1" fill="#fff" viewBox="0 0 32 32"><path d="M15.99 2.551a.64.64 0 0 0-.63.64V7.041a.64.64 0 0 0 1.28 0V3.192a.64.64 0 0 0-.64-.64h-.011.001zM6.97 6.33a.64.64 0 0 0-.446 1.098l2.688 2.688a.64.64 0 1 0 .905-.905L7.429 6.523a.639.639 0 0 0-.458-.193H6.97zm18.042 0a.638.638 0 0 0-.44.193l-2.688 2.688a.64.64 0 1 0 .905.905l2.688-2.688a.64.64 0 0 0-.446-1.098h-.02.001zM16 9.6h-.007a.634.634 0 0 0-.258.054l.004-.002C12.327 9.797 9.6 12.551 9.6 16c0 3.541 2.859 6.4 6.4 6.4s6.4-2.859 6.4-6.4c0-3.448-2.726-6.202-6.138-6.348a.633.633 0 0 0-.254-.053h-.009zM3.2 15.36a.64.64 0 0 0 0 1.28h3.84a.64.64 0 0 0 0-1.28H3.2zm21.76 0a.64.64 0 0 0 0 1.28h3.84a.64.64 0 0 0 0-1.28h-3.84zM9.651 21.69a.639.639 0 0 0-.44.194l-2.688 2.688a.64.64 0 1 0 .905.905l2.688-2.688a.64.64 0 0 0-.446-1.099h-.02.001zm12.678 0a.64.64 0 0 0-.445 1.099l2.688 2.688a.64.64 0 1 0 .905-.905l-2.688-2.688a.639.639 0 0 0-.458-.193h-.001zm-6.339 2.621a.64.64 0 0 0-.63.64V28.801a.64.64 0 0 0 1.28 0V24.952a.64.64 0 0 0-.64-.64h-.011.001z"/></symbol><symbol id="github-icon" viewBox="0 0 24 24"><path d="M12 0C5.374 0 0 5.373 0 12c0 5.302 3.438 9.8 8.207 11.387.599.111.793-.261.793-.577v-2.234c-3.338.726-4.033-1.416-4.033-1.416-.546-1.387-1.333-1.756-1.333-1.756-1.089-.745.083-.729.083-.729 1.205.084 1.839 1.237 1.839 1.237 1.07 1.834 2.807 1.304 3.492.997.107-.775.418-1.305.762-1.604-2.665-.305-5.467-1.334-5.467-5.931 0-1.311.469-2.381 1.236-3.221-.124-.303-.535-1.524.117-3.176 0 0 1.008-.322 3.301 1.23A11.509 11.509 0 0 1 12 5.803c1.02.005 2.047.138 3.006.404 2.291-1.552 3.297-1.23 3.297-1.23.653 1.653.242 2.874.118 3.176.77.84 1.235 1.911 1.235 3.221 0 4.609-2.807 5.624-5.479 5.921.43.372.823 1.102.823 2.222v3.293c0 .319.192.694.801.576C20.566 21.797 24 17.3 24 12c0-6.627-5.373-12-12-12z"/><symbol id="icon-arrow-left-1" viewBox="0 0 32 32"><path stroke-linejoin="round" stroke-linecap="round" stroke-width="2.667" d="M25.333 16H6.666M16 25.334l-9.333-9.333L16 6.668"/></symbol><symbol id="icon-brightness-highsvg" fill="#fff" viewBox="0 0 32 32"><path d="M16 22a6 6 0 1 1 0-12 6 6 0 1 1 0 12zm0 2a8 8 0 0 0 0-16 8 8 0 0 0 0 16zm0-24a1 1 0 0 1 1 1v4a1 1 0 0 1-2 0V1a1 1 0 0 1 1-1zm0 26a1 1 0 0 1 1 1v4a1 1 0 0 1-2 0v-4a1 1 0 0 1 1-1zm16-10a1 1 0 0 1-1 1h-4a1 1 0 0 1 0-2h4a1 1 0 0 1 1 1zM6 16a1 1 0 0 1-1 1H1a1 1 0 0 1 0-2h4a1 1 0 0 1 1 1zM27.314 4.686a.997.997 0 0 1 0 1.414l-2.828 2.83a1 1 0 1 1-1.414-1.416L25.9 4.686a.997.997 0 0 1 1.414 0zM8.928 23.072a.997.997 0 0 1 0 1.414L6.1 27.314A1 1 0 0 1 4.686 25.9l2.828-2.828a.997.997 0 0 1 1.414 0zm18.386 4.242a.997.997 0 0 1-1.414 0l-2.828-2.828a1 1 0 0 1 1.414-1.414l2.828 2.828a.997.997 0 0 1 0 1.414zM8.928 8.93a.997.997 0 0 1-1.414 0L4.686 6.1A1 1 0 1 1 6.1 4.686l2.828 2.828a.998.998 0 0 1 0 1.416z"/></symbol><symbol id="icon-icons8-sun-2-1" fill="#fff" viewBox="0 0 32 32"><path d="M15.99 2.551a.64.64 0 0 0-.63.64V7.041a.64.64 0 0 0 1.28 0V3.192a.64.64 0 0 0-.64-.64h-.011.001zM6.97 6.33a.64.64 0 0 0-.446 1.098l2.688 2.688a.64.64 0 1 0 .905-.905L7.429 6.523a.639.639 0 0 0-.458-.193H6.97zm18.042 0a.638.638 0 0 0-.44.193l-2.688 2.688a.64.64 0 1 0 .905.905l2.688-2.688a.64.64 0 0 0-.446-1.098h-.02.001zM16 9.6h-.007a.634.634 0 0 0-.258.054l.004-.002C12.327 9.797 9.6 12.551 9.6 16c0 3.541 2.859 6.4 6.4 6.4s6.4-2.859 6.4-6.4c0-3.448-2.726-6.202-6.138-6.348a.633.633 0 0 0-.254-.053h-.009zM3.2 15.36a.64.64 0 0 0 0 1.28h3.84a.64.64 0 0 0 0-1.28H3.2zm21.76 0a.64.64 0 0 0 0 1.28h3.84a.64.64 0 0 0 0-1.28h-3.84zM9.651 21.69a.639.639 0 0 0-.44.194l-2.688 2.688a.64.64 0 1 0 .905.905l2.688-2.688a.64.64 0 0 0-.446-1.099h-.02.001zm12.678 0a.64.64 0 0 0-.445 1.099l2.688 2.688a.64.64 0 1 0 .905-.905l-2.688-2.688a.639.639 0 0 0-.458-.193h-.001zm-6.339 2.621a.64.64 0 0 0-.63.64V28.801a.64.64 0 0 0 1.28 0V24.952a.64.64 0 0 0-.64-.64h-.011.001z"/></symbol><symbol id="icon-moon-stars-fill" fill="#fff" viewBox="0 0 32 32"><path d="M12 .556c.218.263.35.604.35.976 0 .271-.07.526-.194.748l.004-.008c-1.105 1.992-1.756 4.367-1.756 6.895v.026-.001c0 8.042 6.556 14.554 14.636 14.554 1.054 0 2.08-.11 3.066-.32a1.574 1.574 0 0 1 1.617.627l.003.005a1.464 1.464 0 0 1-.064 1.789l.002-.002c-3.086 3.769-7.739 6.156-12.95 6.156h-.028.001c-9.22 0-16.688-7.428-16.688-16.58 0-6.888 4.228-12.796 10.248-15.3a1.5 1.5 0 0 1 1.749.433l.002.003z"/><path d="M21.588 6.296a.433.433 0 0 1 .823-.003l.001.003.774 2.324a3.472 3.472 0 0 0 2.194 2.194l2.324.774a.433.433 0 0 1 .003.823l-.003.001-2.324.774a3.487 3.487 0 0 0-2.187 2.17l-.007.024-.774 2.324a.433.433 0 0 1-.823.003l-.001-.003-.774-2.324a3.487 3.487 0 0 0-2.17-2.187l-.024-.007-2.324-.774a.433.433 0 0 1-.003-.823l.003-.001 2.324-.774a3.487 3.487 0 0 0 2.187-2.17l.007-.024.774-2.324zM27.726.198a.29.29 0 0 1 .547-.002l.001.002.516 1.548a2.31 2.31 0 0 0 1.464 1.464l1.548.516a.29.29 0 0 1 .002.547l-.002.001-1.548.516a2.321 2.321 0 0 0-1.459 1.448l-.005.016-.516 1.548a.29.29 0 0 1-.547.002l-.001-.002-.516-1.548a2.321 2.321 0 0 0-1.448-1.459l-.016-.005-1.548-.516a.29.29 0 0 1-.002-.547l.002-.001 1.548-.516a2.31 2.31 0 0 0 1.464-1.464L27.726.2z"/></symbol><symbol id="icon-arrow-left" viewBox="0 0 32 32"><path stroke-linejoin="round" stroke-linecap="round" stroke-width="2.667" d="M6.667 16h18.667M16 25.334l9.333-9.333L16 6.668"/></symbol><symbol id="icon-close_menu" viewBox="0 0 32 32"><path d="M23.734 10.304 22.23 8.8l-5.963 5.962L10.305 8.8l-1.504 1.504 5.962 5.962-5.962 5.963 1.504 1.504 5.962-5.963 5.963 5.963 1.504-1.504-5.963-5.963 5.963-5.962z"/></symbol><symbol id="scroll-up-icon" viewBox="0 0 32 32"><path d="m27.414 12.586-10-10a2 2 0 0 0-2.828 0l-10 10a2 2 0 1 0 2.828 2.828L14 8.828V28a2 2 0 1 0 4 0V8.828l6.586 6.586c.39.39.902.586 1.414.586s1.024-.195 1.414-.586a2 2 0 0 0 0-2.828z"/></symbol></symbol></defs></svg>