<?xml version="1.0" encoding="utf-8"?>
<!-- Generator: Adobe Illustrator 26.3.1, SVG Export Plug-In . SVG Version: 6.00 Build 0)  -->
<svg version="1.1" id="Capa_1" xmlns="http://www.w3.org/2000/svg" xmlns:xlink="http://www.w3.org/1999/xlink" x="0px" y="0px"
	 viewBox="0 0 473 473" style="enable-background:new 0 0 473 473;" xml:space="preserve">
<style type="text/css">
	.st0{fill:#FF0000;}
</style>
<g>
	<g>
		<path class="st0" d="M122,407.3h229c6.9,0,12.5-5.6,12.5-12.5V263.6c0-6.9-5.6-12.5-12.5-12.5H122c-6.9,0-12.5,5.6-12.5,12.5
			v131.2C109.5,401.7,115.1,407.3,122,407.3z M134.5,276.1h204v106.2h-204V276.1z"/>
		<path class="st0" d="M48,18.4H12.5C5.6,18.4,0,24,0,30.9v411.2c0,6.9,5.6,12.5,12.5,12.5H48c6.9,0,12.5-5.6,12.5-12.5V436h14v6.1
			c0,6.9,5.6,12.5,12.5,12.5h299c6.9,0,12.5-5.6,12.5-12.5V436h14v6.1c0,6.9,5.6,12.5,12.5,12.5h35.5c6.9,0,12.5-5.6,12.5-12.5V30.9
			c0-6.9-5.6-12.5-12.5-12.5H425c-6.9,0-12.5,5.6-12.5,12.5v4.9h-14v-4.9c0-6.9-5.6-12.5-12.5-12.5H87c-6.9,0-12.5,5.6-12.5,12.5
			v4.9h-14v-4.9C60.5,24,55,18.4,48,18.4z M87,60.8c6.9,0,12.5-5.6,12.5-12.5v-4.9h274v4.9c0,6.9,5.6,12.5,12.5,12.5h39
			c6.9,0,12.5-5.6,12.5-12.5v-4.9H448v386.2h-10.5v-6.1c0-6.9-5.6-12.5-12.5-12.5h-39c-6.9,0-12.5,5.6-12.5,12.5v6.1h-274v-6.1
			c0-6.9-5.6-12.5-12.5-12.5H48c-6.9,0-12.5,5.6-12.5,12.5v6.1H25V43.4h10.5v4.9c0,6.9,5.6,12.5,12.5,12.5H87z"/>
		<path class="st0" d="M122,221.9h229c6.9,0,12.5-5.6,12.5-12.5V78.2c0-6.9-5.6-12.5-12.5-12.5H122c-6.9,0-12.5,5.6-12.5,12.5v131.2
			C109.5,216.3,115.1,221.9,122,221.9z M134.5,90.8h204v106.2h-204V90.8z"/>
		<path class="st0" d="M57.7,375.7h19.6c3.6,0,6.6-3,6.6-6.6v-17.8c0-3.6-3-6.6-6.6-6.6H57.7c-3.6,0-6.6,3-6.6,6.6v17.8
			C51.1,372.7,54.1,375.7,57.7,375.7z"/>
		<path class="st0" d="M57.7,293.2h19.6c3.6,0,6.6-3,6.6-6.6v-17.8c0-3.6-3-6.6-6.6-6.6H57.7c-3.6,0-6.6,3-6.6,6.6v17.8
			C51.1,290.3,54.1,293.2,57.7,293.2z"/>
		<path class="st0" d="M57.7,210.8h19.6c3.6,0,6.6-3,6.6-6.6v-17.8c0-3.6-3-6.6-6.6-6.6H57.7c-3.6,0-6.6,3-6.6,6.6v17.8
			C51.1,207.8,54.1,210.8,57.7,210.8z"/>
		<path class="st0" d="M57.7,128.3h19.6c3.6,0,6.6-3,6.6-6.6v-17.8c0-3.6-3-6.6-6.6-6.6H57.7c-3.6,0-6.6,3-6.6,6.6v17.8
			C51.1,125.4,54.1,128.3,57.7,128.3z"/>
		<path class="st0" d="M395.7,375.7h19.6c3.6,0,6.6-3,6.6-6.6v-17.8c0-3.6-3-6.6-6.6-6.6h-19.6c-3.6,0-6.6,3-6.6,6.6v17.8
			C389.1,372.7,392,375.7,395.7,375.7z"/>
		<path class="st0" d="M395.7,293.2h19.6c3.6,0,6.6-3,6.6-6.6v-17.8c0-3.6-3-6.6-6.6-6.6h-19.6c-3.6,0-6.6,3-6.6,6.6v17.8
			C389.1,290.3,392,293.2,395.7,293.2z"/>
		<path class="st0" d="M395.7,210.8h19.6c3.6,0,6.6-3,6.6-6.6v-17.8c0-3.6-3-6.6-6.6-6.6h-19.6c-3.6,0-6.6,3-6.6,6.6v17.8
			C389.1,207.8,392,210.8,395.7,210.8z"/>
		<path class="st0" d="M395.7,128.3h19.6c3.6,0,6.6-3,6.6-6.6v-17.8c0-3.6-3-6.6-6.6-6.6h-19.6c-3.6,0-6.6,3-6.6,6.6v17.8
			C389.1,125.4,392,128.3,395.7,128.3z"/>
	</g>
</g>
</svg>
