<svg aria-hidden="true" style="position: absolute; width: 0; height: 0; overflow: hidden;" version="1.1" xmlns="http://www.w3.org/2000/svg" xmlns:xlink="http://www.w3.org/1999/xlink">
<defs>
<symbol id="icon-Group" viewBox="0 0 34 32">
<path fill="#ff6b08" style="fill: var(--color1, #ff6b08)" d="M17.231 31.705l-2.412-2.412c-8.96-7.926-14.818-13.268-14.818-19.815 0-5.342 4.135-9.477 9.477-9.477 2.929 0 5.858 1.378 7.754 3.618 1.895-2.24 4.825-3.618 7.754-3.618 5.342 0 9.477 4.135 9.477 9.477 0 6.548-5.858 11.889-14.818 19.815l-2.412 2.412z"></path>
</symbol>
<symbol id="icon-search-2" viewBox="0 0 32 32">
<path fill="none" stroke="#fff" style="stroke: var(--color2, #fff)" stroke-linejoin="round" stroke-linecap="round" stroke-miterlimit="4" stroke-width="2.6667" d="M14.667 25.333c5.891 0 10.667-4.776 10.667-10.667s-4.776-10.667-10.667-10.667c-5.891 0-10.667 4.776-10.667 10.667s4.776 10.667 10.667 10.667z"></path>
<path fill="none" stroke="#fff" style="stroke: var(--color2, #fff)" stroke-linejoin="round" stroke-linecap="round" stroke-miterlimit="4" stroke-width="2.6667" d="M28 28.001l-5.8-5.8"></path>
</symbol>
<symbol id="icon-film" viewBox="0 0 32 32">
<path fill="none" stroke="#fff" style="stroke: var(--color2, #fff)" stroke-linejoin="round" stroke-linecap="round" stroke-miterlimit="4" stroke-width="2.6667" d="M26.427 2.667h-20.853c-1.605 0-2.907 1.301-2.907 2.907v20.853c0 1.605 1.301 2.907 2.907 2.907h20.853c1.605 0 2.907-1.301 2.907-2.907v-20.853c0-1.605-1.301-2.907-2.907-2.907z"></path>
<path fill="none" stroke="#fff" style="stroke: var(--color2, #fff)" stroke-linejoin="round" stroke-linecap="round" stroke-miterlimit="4" stroke-width="2.6667" d="M9.333 2.667v26.667"></path>
<path fill="none" stroke="#fff" style="stroke: var(--color2, #fff)" stroke-linejoin="round" stroke-linecap="round" stroke-miterlimit="4" stroke-width="2.6667" d="M22.667 2.667v26.667"></path>
<path fill="none" stroke="#fff" style="stroke: var(--color2, #fff)" stroke-linejoin="round" stroke-linecap="round" stroke-miterlimit="4" stroke-width="2.6667" d="M2.667 16h26.667"></path>
<path fill="none" stroke="#fff" style="stroke: var(--color2, #fff)" stroke-linejoin="round" stroke-linecap="round" stroke-miterlimit="4" stroke-width="2.6667" d="M2.667 9.333h6.667"></path>
<path fill="none" stroke="#fff" style="stroke: var(--color2, #fff)" stroke-linejoin="round" stroke-linecap="round" stroke-miterlimit="4" stroke-width="2.6667" d="M2.667 22.667h6.667"></path>
<path fill="none" stroke="#fff" style="stroke: var(--color2, #fff)" stroke-linejoin="round" stroke-linecap="round" stroke-miterlimit="4" stroke-width="2.6667" d="M22.667 22.667h6.667"></path>
<path fill="none" stroke="#fff" style="stroke: var(--color2, #fff)" stroke-linejoin="round" stroke-linecap="round" stroke-miterlimit="4" stroke-width="2.6667" d="M22.667 9.333h6.667"></path>
</symbol>
<symbol id="icon-tryzub3" viewBox="0 0 19 32">
<path fill="#ff6b08" style="fill: var(--color1, #ff6b08)" d="M9.602 0c-0.744 0.846-1.2 1.956-1.2 3.169 0.048 2.671 0.372 5.335 0.402 8.006 0.060 2.485-0.684 4.819-1.59 7.094-0.306 0.63-0.63 1.248-0.96 1.867l-0.96-0.198c-0.87-0.174-1.434-1.014-1.261-1.878 0.154-0.737 0.796-1.284 1.566-1.29h0.001l0.348 0.036-0.78-6.518c-0.258-2.905-1.752-5.455-3.961-7.118-0.345-0.257-0.739-0.513-1.149-0.744l-0.057-0.030v23.178h5.353c0.402 2.173 1.596 4.063 3.277 5.365 0.402 0.27 0.732 0.636 0.972 1.062 0.24-0.426 0.57-0.792 0.972-1.062 1.68-1.302 2.874-3.193 3.277-5.365h5.354v-23.177c-0.467 0.261-0.861 0.517-1.237 0.796l0.031-0.022c-2.208 1.663-3.703 4.213-3.961 7.118l-0.781 6.518 0.348-0.036c0.771 0.007 1.412 0.554 1.564 1.28l0.002 0.011c0.174 0.864-0.39 1.704-1.26 1.878l-0.96 0.198c-0.33-0.618-0.654-1.236-0.96-1.867-0.906-2.274-1.651-4.609-1.59-7.094 0.030-2.671 0.354-5.335 0.402-8.006 0-1.212-0.456-2.323-1.2-3.169zM1.602 5.737c1.028 1.192 1.726 2.696 1.934 4.352l0.004 0.041 0.642 5.383c-0.816 0.408-1.44 1.152-1.674 2.053h-0.906v-11.829zM17.602 5.737v11.829h-0.906c-0.234-0.9-0.858-1.645-1.674-2.052l0.642-5.383c0.213-1.697 0.91-3.201 1.947-4.404l-0.009 0.011zM9.602 16.552c0.469 1.519 1.064 2.837 1.799 4.062l-0.046-0.083c-0.696 0.216-1.308 0.63-1.752 1.182-0.444-0.558-1.056-0.966-1.752-1.182 0.688-1.142 1.283-2.46 1.718-3.85l0.035-0.13zM1.602 19.169h0.906c0.288 1.104 1.146 1.98 2.244 2.28l0.768 0.18c-0.201 0.701-0.317 1.507-0.318 2.34v0.001h-3.601v-4.801zM16.696 19.169h0.906v4.801h-3.601c0-0.81-0.114-1.596-0.318-2.341l0.768-0.18c1.092-0.3 1.956-1.176 2.245-2.28zM7.088 21.995c0.966 0.138 1.717 0.966 1.717 1.975h-1.998c0-0.684 0.102-1.345 0.282-1.975zM12.117 21.995c0.177 0.591 0.28 1.271 0.282 1.974v0.001h-1.998c0-1.008 0.75-1.836 1.716-1.975zM6.986 25.572h1.818v3.367c-0.882-0.924-1.524-2.083-1.818-3.367zM10.401 25.572h1.818c-0.294 1.284-0.936 2.443-1.819 3.367v-3.367z"></path>
</symbol>
<symbol id="icon-tryzub3-1" viewBox="0 0 19 32">
<path fill="#fff" style="fill: var(--color1, #fff)"d="M9.602 0c-0.744 0.846-1.2 1.956-1.2 3.169 0.048 2.671 0.372 5.335 0.402 8.006 0.060 2.485-0.684 4.819-1.59 7.094-0.306 0.63-0.63 1.248-0.96 1.867l-0.96-0.198c-0.87-0.174-1.434-1.014-1.261-1.878 0.154-0.737 0.796-1.284 1.566-1.29h0.001l0.348 0.036-0.78-6.518c-0.258-2.905-1.752-5.455-3.961-7.118-0.345-0.257-0.739-0.513-1.149-0.744l-0.057-0.030v23.178h5.353c0.402 2.173 1.596 4.063 3.277 5.365 0.402 0.27 0.732 0.636 0.972 1.062 0.24-0.426 0.57-0.792 0.972-1.062 1.68-1.302 2.874-3.193 3.277-5.365h5.354v-23.177c-0.467 0.261-0.861 0.517-1.237 0.796l0.031-0.022c-2.208 1.663-3.703 4.213-3.961 7.118l-0.781 6.518 0.348-0.036c0.771 0.007 1.412 0.554 1.564 1.28l0.002 0.011c0.174 0.864-0.39 1.704-1.26 1.878l-0.96 0.198c-0.33-0.618-0.654-1.236-0.96-1.867-0.906-2.274-1.651-4.609-1.59-7.094 0.030-2.671 0.354-5.335 0.402-8.006 0-1.212-0.456-2.323-1.2-3.169zM1.602 5.737c1.028 1.192 1.726 2.696 1.934 4.352l0.004 0.041 0.642 5.383c-0.816 0.408-1.44 1.152-1.674 2.053h-0.906v-11.829zM17.602 5.737v11.829h-0.906c-0.234-0.9-0.858-1.645-1.674-2.052l0.642-5.383c0.213-1.697 0.91-3.201 1.947-4.404l-0.009 0.011zM9.602 16.552c0.469 1.519 1.064 2.837 1.799 4.062l-0.046-0.083c-0.696 0.216-1.308 0.63-1.752 1.182-0.444-0.558-1.056-0.966-1.752-1.182 0.688-1.142 1.283-2.46 1.718-3.85l0.035-0.13zM1.602 19.169h0.906c0.288 1.104 1.146 1.98 2.244 2.28l0.768 0.18c-0.201 0.701-0.317 1.507-0.318 2.34v0.001h-3.601v-4.801zM16.696 19.169h0.906v4.801h-3.601c0-0.81-0.114-1.596-0.318-2.341l0.768-0.18c1.092-0.3 1.956-1.176 2.245-2.28zM7.088 21.995c0.966 0.138 1.717 0.966 1.717 1.975h-1.998c0-0.684 0.102-1.345 0.282-1.975zM12.117 21.995c0.177 0.591 0.28 1.271 0.282 1.974v0.001h-1.998c0-1.008 0.75-1.836 1.716-1.975zM6.986 25.572h1.818v3.367c-0.882-0.924-1.524-2.083-1.818-3.367zM10.401 25.572h1.818c-0.294 1.284-0.936 2.443-1.819 3.367v-3.367z"></path>
</symbol>
</defs>
</svg>
