<svg aria-hidden="true" style="position: absolute; width: 0; height: 0; overflow: hidden;" version="1.1" xmlns="http://www.w3.org/2000/svg" xmlns:xlink="http://www.w3.org/1999/xlink">
<defs>
<symbol id="icon-Group" viewBox="0 0 34 32">
<path fill="#ff6b08" style="fill: var(--color1, #ff6b08)" d="M17.231 31.705l-2.412-2.412c-8.96-7.926-14.818-13.268-14.818-19.815 0-5.342 4.135-9.477 9.477-9.477 2.929 0 5.858 1.378 7.754 3.618 1.895-2.24 4.825-3.618 7.754-3.618 5.342 0 9.477 4.135 9.477 9.477 0 6.548-5.858 11.889-14.818 19.815l-2.412 2.412z"></path>
</symbol>
<symbol id="icon-search-2" viewBox="0 0 32 32">
<path fill="none" stroke="#fff" style="stroke: var(--color2, #fff)" stroke-linejoin="round" stroke-linecap="round" stroke-miterlimit="4" stroke-width="2.6667" d="M14.667 25.333c5.891 0 10.667-4.776 10.667-10.667s-4.776-10.667-10.667-10.667c-5.891 0-10.667 4.776-10.667 10.667s4.776 10.667 10.667 10.667z"></path>
<path fill="none" stroke="#fff" style="stroke: var(--color2, #fff)" stroke-linejoin="round" stroke-linecap="round" stroke-miterlimit="4" stroke-width="2.6667" d="M28 28.001l-5.8-5.8"></path>
</symbol>
<symbol id="icon-film" viewBox="0 0 32 32">
<path fill="none" stroke="#fff" style="stroke: var(--color2, #fff)" stroke-linejoin="round" stroke-linecap="round" stroke-miterlimit="4" stroke-width="2.6667" d="M26.427 2.667h-20.853c-1.605 0-2.907 1.301-2.907 2.907v20.853c0 1.605 1.301 2.907 2.907 2.907h20.853c1.605 0 2.907-1.301 2.907-2.907v-20.853c0-1.605-1.301-2.907-2.907-2.907z"></path>
<path fill="none" stroke="#fff" style="stroke: var(--color2, #fff)" stroke-linejoin="round" stroke-linecap="round" stroke-miterlimit="4" stroke-width="2.6667" d="M9.333 2.667v26.667"></path>
<path fill="none" stroke="#fff" style="stroke: var(--color2, #fff)" stroke-linejoin="round" stroke-linecap="round" stroke-miterlimit="4" stroke-width="2.6667" d="M22.667 2.667v26.667"></path>
<path fill="none" stroke="#fff" style="stroke: var(--color2, #fff)" stroke-linejoin="round" stroke-linecap="round" stroke-miterlimit="4" stroke-width="2.6667" d="M2.667 16h26.667"></path>
<path fill="none" stroke="#fff" style="stroke: var(--color2, #fff)" stroke-linejoin="round" stroke-linecap="round" stroke-miterlimit="4" stroke-width="2.6667" d="M2.667 9.333h6.667"></path>
<path fill="none" stroke="#fff" style="stroke: var(--color2, #fff)" stroke-linejoin="round" stroke-linecap="round" stroke-miterlimit="4" stroke-width="2.6667" d="M2.667 22.667h6.667"></path>
<path fill="none" stroke="#fff" style="stroke: var(--color2, #fff)" stroke-linejoin="round" stroke-linecap="round" stroke-miterlimit="4" stroke-width="2.6667" d="M22.667 22.667h6.667"></path>
<path fill="none" stroke="#fff" style="stroke: var(--color2, #fff)" stroke-linejoin="round" stroke-linecap="round" stroke-miterlimit="4" stroke-width="2.6667" d="M22.667 9.333h6.667"></path>
</symbol>
<symbol id="icon-close-modal-btn" viewBox="0 0 32 32">
<path d="M23.733 10.304l-1.504-1.504-5.963 5.963-5.963-5.963-1.504 1.504 5.963 5.963-5.963 5.963 1.504 1.504 5.963-5.963 5.963 5.963 1.504-1.504-5.963-5.963 5.963-5.963z"></path>
</symbol>
<symbol id="movie-logo-favicon" viewBox="0 0 32 32">
<path fill="#f00" style="fill: var(--color1, #f00)" d="M8.254 27.555h15.493c0.467 0 0.846-0.379 0.846-0.846v-8.876c0-0.467-0.379-0.846-0.846-0.846h-15.493c-0.467 0-0.846 0.379-0.846 0.846v8.876c0 0.467 0.379 0.846 0.846 0.846zM9.099 18.679h13.801v7.185h-13.801v-7.185z"></path>
<path fill="#f00" style="fill: var(--color1, #f00)" d="M3.247 1.245h-2.402c-0.467 0-0.846 0.379-0.846 0.846v27.819c0 0.467 0.379 0.846 0.846 0.846h2.402c0.467 0 0.846-0.379 0.846-0.846v-0.413h0.947v0.413c0 0.467 0.379 0.846 0.846 0.846h20.228c0.467 0 0.846-0.379 0.846-0.846v-0.413h0.947v0.413c0 0.467 0.379 0.846 0.846 0.846h2.402c0.467 0 0.846-0.379 0.846-0.846v-27.819c0-0.467-0.379-0.846-0.846-0.846h-2.402c-0.467 0-0.846 0.379-0.846 0.846v0.332h-0.947v-0.332c0-0.467-0.379-0.846-0.846-0.846h-20.228c-0.467 0-0.846 0.379-0.846 0.846v0.332h-0.947v-0.332c0-0.467-0.372-0.846-0.846-0.846zM5.886 4.113c0.467 0 0.846-0.379 0.846-0.846v-0.332h18.537v0.332c0 0.467 0.379 0.846 0.846 0.846h2.638c0.467 0 0.846-0.379 0.846-0.846v-0.332h0.71v26.128h-0.71v-0.413c0-0.467-0.379-0.846-0.846-0.846h-2.638c-0.467 0-0.846 0.379-0.846 0.846v0.413h-18.537v-0.413c0-0.467-0.379-0.846-0.846-0.846h-2.638c-0.467 0-0.846 0.379-0.846 0.846v0.413h-0.71v-26.128h0.71v0.332c0 0.467 0.379 0.846 0.846 0.846h2.638z"></path>
<path fill="#f00" style="fill: var(--color1, #f00)" d="M8.254 15.012h15.493c0.467 0 0.846-0.379 0.846-0.846v-8.876c0-0.467-0.379-0.846-0.846-0.846h-15.493c-0.467 0-0.846 0.379-0.846 0.846v8.876c0 0.467 0.379 0.846 0.846 0.846zM9.099 6.143h13.801v7.185h-13.801v-7.185z"></path>
<path fill="#f00" style="fill: var(--color1, #f00)" d="M3.904 25.417h1.326c0.244 0 0.447-0.203 0.447-0.447v-1.204c0-0.244-0.203-0.447-0.447-0.447h-1.326c-0.244 0-0.446 0.203-0.446 0.447v1.204c0 0.244 0.203 0.447 0.446 0.447z"></path>
<path fill="#f00" style="fill: var(--color1, #f00)" d="M3.904 19.836h1.326c0.244 0 0.447-0.203 0.447-0.447v-1.204c0-0.244-0.203-0.447-0.447-0.447h-1.326c-0.244 0-0.446 0.203-0.446 0.447v1.204c0 0.25 0.203 0.447 0.446 0.447z"></path>
<path fill="#f00" style="fill: var(--color1, #f00)" d="M3.904 14.261h1.326c0.244 0 0.447-0.203 0.447-0.447v-1.204c0-0.244-0.203-0.447-0.447-0.447h-1.326c-0.244 0-0.446 0.203-0.446 0.447v1.204c0 0.244 0.203 0.447 0.446 0.447z"></path>
<path fill="#f00" style="fill: var(--color1, #f00)" d="M3.904 8.68h1.326c0.244 0 0.447-0.203 0.447-0.447v-1.204c0-0.244-0.203-0.447-0.447-0.447h-1.326c-0.244 0-0.446 0.203-0.446 0.447v1.204c0 0.25 0.203 0.447 0.446 0.447z"></path>
<path fill="#f00" style="fill: var(--color1, #f00)" d="M26.77 25.417h1.326c0.244 0 0.447-0.203 0.447-0.447v-1.204c0-0.244-0.203-0.447-0.447-0.447h-1.326c-0.244 0-0.447 0.203-0.447 0.447v1.204c0 0.244 0.196 0.447 0.447 0.447z"></path>
<path fill="#f00" style="fill: var(--color1, #f00)" d="M26.77 19.836h1.326c0.244 0 0.447-0.203 0.447-0.447v-1.204c0-0.244-0.203-0.447-0.447-0.447h-1.326c-0.244 0-0.447 0.203-0.447 0.447v1.204c0 0.25 0.196 0.447 0.447 0.447z"></path>
<path fill="#f00" style="fill: var(--color1, #f00)" d="M26.77 14.261h1.326c0.244 0 0.447-0.203 0.447-0.447v-1.204c0-0.244-0.203-0.447-0.447-0.447h-1.326c-0.244 0-0.447 0.203-0.447 0.447v1.204c0 0.244 0.196 0.447 0.447 0.447z"></path>
<path fill="#f00" style="fill: var(--color1, #f00)" d="M26.77 8.68h1.326c0.244 0 0.447-0.203 0.447-0.447v-1.204c0-0.244-0.203-0.447-0.447-0.447h-1.326c-0.244 0-0.447 0.203-0.447 0.447v1.204c0 0.25 0.196 0.447 0.447 0.447z"></path>
</symbol>
</defs>
</svg>
