<svg aria-hidden="true" style="position: absolute; width: 0; height: 0; overflow: hidden;" version="1.1" xmlns="http://www.w3.org/2000/svg" xmlns:xlink="http://www.w3.org/1999/xlink">
<defs>
<symbol id="icon-Group" viewBox="0 0 34 32">
<path fill="#f7fb1f" style="fill: var(--color1, #f7fb1f)" d="M17.231 31.705l-2.412-2.412c-8.96-7.926-14.818-13.268-14.818-19.815 0-5.342 4.135-9.477 9.477-9.477 2.929 0 5.858 1.378 7.754 3.618 1.895-2.24 4.825-3.618 7.754-3.618 5.342 0 9.477 4.135 9.477 9.477 0 6.548-5.858 11.889-14.818 19.815l-2.412 2.412z"></path>
</symbol>
<symbol id="icon-search-2" viewBox="0 0 32 32">
<path fill="none" stroke="#fff" style="stroke: var(--color2, #fff)" stroke-linejoin="round" stroke-linecap="round" stroke-miterlimit="4" stroke-width="2.6667" d="M14.667 25.333c5.891 0 10.667-4.776 10.667-10.667s-4.776-10.667-10.667-10.667c-5.891 0-10.667 4.776-10.667 10.667s4.776 10.667 10.667 10.667z"></path>
<path fill="none" stroke="#fff" style="stroke: var(--color2, #fff)" stroke-linejoin="round" stroke-linecap="round" stroke-miterlimit="4" stroke-width="2.6667" d="M28 28.001l-5.8-5.8"></path>
</symbol>
<symbol id="icon-film" viewBox="0 0 32 32">
<path fill="none" stroke="#fff" style="stroke: var(--color2, #fff)" stroke-linejoin="round" stroke-linecap="round" stroke-miterlimit="4" stroke-width="2.6667" d="M26.427 2.667h-20.853c-1.605 0-2.907 1.301-2.907 2.907v20.853c0 1.605 1.301 2.907 2.907 2.907h20.853c1.605 0 2.907-1.301 2.907-2.907v-20.853c0-1.605-1.301-2.907-2.907-2.907z"></path>
<path fill="none" stroke="#fff" style="stroke: var(--color2, #fff)" stroke-linejoin="round" stroke-linecap="round" stroke-miterlimit="4" stroke-width="2.6667" d="M9.333 2.667v26.667"></path>
<path fill="none" stroke="#fff" style="stroke: var(--color2, #fff)" stroke-linejoin="round" stroke-linecap="round" stroke-miterlimit="4" stroke-width="2.6667" d="M22.667 2.667v26.667"></path>
<path fill="none" stroke="#fff" style="stroke: var(--color2, #fff)" stroke-linejoin="round" stroke-linecap="round" stroke-miterlimit="4" stroke-width="2.6667" d="M2.667 16h26.667"></path>
<path fill="none" stroke="#fff" style="stroke: var(--color2, #fff)" stroke-linejoin="round" stroke-linecap="round" stroke-miterlimit="4" stroke-width="2.6667" d="M2.667 9.333h6.667"></path>
<path fill="none" stroke="#fff" style="stroke: var(--color2, #fff)" stroke-linejoin="round" stroke-linecap="round" stroke-miterlimit="4" stroke-width="2.6667" d="M2.667 22.667h6.667"></path>
<path fill="none" stroke="#fff" style="stroke: var(--color2, #fff)" stroke-linejoin="round" stroke-linecap="round" stroke-miterlimit="4" stroke-width="2.6667" d="M22.667 22.667h6.667"></path>
<path fill="none" stroke="#fff" style="stroke: var(--color2, #fff)" stroke-linejoin="round" stroke-linecap="round" stroke-miterlimit="4" stroke-width="2.6667" d="M22.667 9.333h6.667"></path>
</symbol>
<symbol id="icon-arrow-right2" viewBox="0 0 32 32">
<path d="M19.414 27.414l10-10c0.781-0.781 0.781-2.047 0-2.828l-10-10c-0.781-0.781-2.047-0.781-2.828 0s-0.781 2.047 0 2.828l6.586 6.586h-19.172c-1.105 0-2 0.895-2 2s0.895 2 2 2h19.172l-6.586 6.586c-0.39 0.39-0.586 0.902-0.586 1.414s0.195 1.024 0.586 1.414c0.781 0.781 2.047 0.781 2.828 0z"></path>

</symbol>
<symbol id="icon-arrow-left2" viewBox="0 0 32 32">
<path d="M12.586 27.414l-10-10c-0.781-0.781-0.781-2.047 0-2.828l10-10c0.781-0.781 2.047-0.781 2.828 0s0.781 2.047 0 2.828l-6.586 6.586h19.172c1.105 0 2 0.895 2 2s-0.895 2-2 2h-19.172l6.586 6.586c0.39 0.39 0.586 0.902 0.586 1.414s-0.195 1.024-0.586 1.414c-0.781 0.781-2.047 0.781-2.828 0z"></path>
</symbol>
<symbol id="movie-logo-favicon" viewBox="0 0 32 32">
<path fill="#f00" style="fill: var(--color1, #f00)" d="M8.254 27.555h15.493c0.467 0 0.846-0.379 0.846-0.846v-8.876c0-0.467-0.379-0.846-0.846-0.846h-15.493c-0.467 0-0.846 0.379-0.846 0.846v8.876c0 0.467 0.379 0.846 0.846 0.846zM9.099 18.679h13.801v7.185h-13.801v-7.185z"></path>
<path fill="#f00" style="fill: var(--color1, #f00)" d="M3.247 1.245h-2.402c-0.467 0-0.846 0.379-0.846 0.846v27.819c0 0.467 0.379 0.846 0.846 0.846h2.402c0.467 0 0.846-0.379 0.846-0.846v-0.413h0.947v0.413c0 0.467 0.379 0.846 0.846 0.846h20.228c0.467 0 0.846-0.379 0.846-0.846v-0.413h0.947v0.413c0 0.467 0.379 0.846 0.846 0.846h2.402c0.467 0 0.846-0.379 0.846-0.846v-27.819c0-0.467-0.379-0.846-0.846-0.846h-2.402c-0.467 0-0.846 0.379-0.846 0.846v0.332h-0.947v-0.332c0-0.467-0.379-0.846-0.846-0.846h-20.228c-0.467 0-0.846 0.379-0.846 0.846v0.332h-0.947v-0.332c0-0.467-0.372-0.846-0.846-0.846zM5.886 4.113c0.467 0 0.846-0.379 0.846-0.846v-0.332h18.537v0.332c0 0.467 0.379 0.846 0.846 0.846h2.638c0.467 0 0.846-0.379 0.846-0.846v-0.332h0.71v26.128h-0.71v-0.413c0-0.467-0.379-0.846-0.846-0.846h-2.638c-0.467 0-0.846 0.379-0.846 0.846v0.413h-18.537v-0.413c0-0.467-0.379-0.846-0.846-0.846h-2.638c-0.467 0-0.846 0.379-0.846 0.846v0.413h-0.71v-26.128h0.71v0.332c0 0.467 0.379 0.846 0.846 0.846h2.638z"></path>
<path fill="#f00" style="fill: var(--color1, #f00)" d="M8.254 15.012h15.493c0.467 0 0.846-0.379 0.846-0.846v-8.876c0-0.467-0.379-0.846-0.846-0.846h-15.493c-0.467 0-0.846 0.379-0.846 0.846v8.876c0 0.467 0.379 0.846 0.846 0.846zM9.099 6.143h13.801v7.185h-13.801v-7.185z"></path>
<path fill="#f00" style="fill: var(--color1, #f00)" d="M3.904 25.417h1.326c0.244 0 0.447-0.203 0.447-0.447v-1.204c0-0.244-0.203-0.447-0.447-0.447h-1.326c-0.244 0-0.446 0.203-0.446 0.447v1.204c0 0.244 0.203 0.447 0.446 0.447z"></path>
<path fill="#f00" style="fill: var(--color1, #f00)" d="M3.904 19.836h1.326c0.244 0 0.447-0.203 0.447-0.447v-1.204c0-0.244-0.203-0.447-0.447-0.447h-1.326c-0.244 0-0.446 0.203-0.446 0.447v1.204c0 0.25 0.203 0.447 0.446 0.447z"></path>
<path fill="#f00" style="fill: var(--color1, #f00)" d="M3.904 14.261h1.326c0.244 0 0.447-0.203 0.447-0.447v-1.204c0-0.244-0.203-0.447-0.447-0.447h-1.326c-0.244 0-0.446 0.203-0.446 0.447v1.204c0 0.244 0.203 0.447 0.446 0.447z"></path>
<path fill="#f00" style="fill: var(--color1, #f00)" d="M3.904 8.68h1.326c0.244 0 0.447-0.203 0.447-0.447v-1.204c0-0.244-0.203-0.447-0.447-0.447h-1.326c-0.244 0-0.446 0.203-0.446 0.447v1.204c0 0.25 0.203 0.447 0.446 0.447z"></path>
<path fill="#f00" style="fill: var(--color1, #f00)" d="M26.77 25.417h1.326c0.244 0 0.447-0.203 0.447-0.447v-1.204c0-0.244-0.203-0.447-0.447-0.447h-1.326c-0.244 0-0.447 0.203-0.447 0.447v1.204c0 0.244 0.196 0.447 0.447 0.447z"></path>
<path fill="#f00" style="fill: var(--color1, #f00)" d="M26.77 19.836h1.326c0.244 0 0.447-0.203 0.447-0.447v-1.204c0-0.244-0.203-0.447-0.447-0.447h-1.326c-0.244 0-0.447 0.203-0.447 0.447v1.204c0 0.25 0.196 0.447 0.447 0.447z"></path>
<path fill="#f00" style="fill: var(--color1, #f00)" d="M26.77 14.261h1.326c0.244 0 0.447-0.203 0.447-0.447v-1.204c0-0.244-0.203-0.447-0.447-0.447h-1.326c-0.244 0-0.447 0.203-0.447 0.447v1.204c0 0.244 0.196 0.447 0.447 0.447z"></path>
<path fill="#f00" style="fill: var(--color1, #f00)" d="M26.77 8.68h1.326c0.244 0 0.447-0.203 0.447-0.447v-1.204c0-0.244-0.203-0.447-0.447-0.447h-1.326c-0.244 0-0.447 0.203-0.447 0.447v1.204c0 0.25 0.196 0.447 0.447 0.447z"></path>
</symbol>
<symbol id="icon-icons8-sun-1" fill="#fff" viewBox="0 0 32 32">
<path d="M15.99 2.551c-0.349 0.006-0.63 0.29-0.63 0.64 0 0.003 0 0.006 0 0.010v-0 3.84c0 0.353 0.287 0.64 0.64 0.64s0.64-0.287 0.64-0.64v0-3.84c0-0.003 0-0.006 0-0.009 0-0.353-0.287-0.64-0.64-0.64-0.004 0-0.007 0-0.011 0h0.001zM6.97 6.33c-0.353 0.001-0.639 0.287-0.639 0.64 0 0.18 0.074 0.342 0.193 0.458l2.688 2.688c0.117 0.121 0.28 0.195 0.46 0.195 0.353 0 0.64-0.287 0.64-0.64 0-0.181-0.075-0.344-0.195-0.46l-2.688-2.688c-0.116-0.119-0.279-0.193-0.458-0.193-0 0-0.001 0-0.001 0h0zM25.012 6.33c-0.173 0.005-0.328 0.078-0.44 0.193l-2.688 2.688c-0.121 0.117-0.195 0.28-0.195 0.46 0 0.353 0.287 0.64 0.64 0.64 0.181 0 0.344-0.075 0.46-0.195l2.688-2.688c0.119-0.116 0.194-0.279 0.194-0.458 0-0.353-0.287-0.64-0.64-0.64-0.007 0-0.013 0-0.020 0l0.001-0zM16 9.6c-0.002-0-0.005-0-0.007-0-0.092 0-0.179 0.019-0.258 0.054l0.004-0.002c-3.412 0.145-6.139 2.899-6.139 6.348 0 3.541 2.859 6.4 6.4 6.4s6.4-2.859 6.4-6.4c0-3.448-2.726-6.202-6.138-6.348-0.075-0.033-0.162-0.053-0.254-0.053-0.003 0-0.006 0-0.009 0h0zM3.2 15.36c-0.353 0-0.64 0.287-0.64 0.64s0.287 0.64 0.64 0.64v0h3.84c0.353 0 0.64-0.287 0.64-0.64s-0.287-0.64-0.64-0.64v0h-3.84zM24.96 15.36c-0.353 0-0.64 0.287-0.64 0.64s0.287 0.64 0.64 0.64v0h3.84c0.353 0 0.64-0.287 0.64-0.64s-0.287-0.64-0.64-0.64v0h-3.84zM9.651 21.69c-0.173 0.005-0.328 0.079-0.44 0.194l-2.688 2.688c-0.121 0.117-0.195 0.28-0.195 0.46 0 0.353 0.287 0.64 0.64 0.64 0.181 0 0.344-0.075 0.46-0.195l2.688-2.688c0.119-0.116 0.194-0.279 0.194-0.459 0-0.353-0.287-0.64-0.64-0.64-0.007 0-0.013 0-0.020 0l0.001-0zM22.329 21.69c-0.353 0-0.639 0.287-0.639 0.64 0 0.18 0.074 0.342 0.194 0.459l2.688 2.688c0.117 0.121 0.28 0.195 0.46 0.195 0.353 0 0.64-0.287 0.64-0.64 0-0.181-0.075-0.344-0.195-0.46l-2.688-2.688c-0.116-0.119-0.279-0.193-0.458-0.193-0 0-0.001 0-0.001 0h0zM15.99 24.311c-0.349 0.006-0.63 0.29-0.63 0.64 0 0.003 0 0.006 0 0.010v-0 3.84c0 0.353 0.287 0.64 0.64 0.64s0.64-0.287 0.64-0.64v0-3.84c0-0.003 0-0.006 0-0.009 0-0.353-0.287-0.64-0.64-0.64-0.004 0-0.007 0-0.011 0h0.001z"></path>
</symbol>
<symbol id="github-icon" viewBox="0 0 24 24">
    <path
        d="M12 0c-6.626 0-12 5.373-12 12 0 5.302 3.438 9.8 8.207 11.387.599.111.793-.261.793-.577v-2.234c-3.338.726-4.033-1.416-4.033-1.416-.546-1.387-1.333-1.756-1.333-1.756-1.089-.745.083-.729.083-.729 1.205.084 1.839 1.237 1.839 1.237 1.07 1.834 2.807 1.304 3.492.997.107-.775.418-1.305.762-1.604-2.665-.305-5.467-1.334-5.467-5.931 0-1.311.469-2.381 1.236-3.221-.124-.303-.535-1.524.117-3.176 0 0 1.008-.322 3.301 1.23.957-.266 1.983-.399 3.003-.404 1.02.005 2.047.138 3.006.404 2.291-1.552 3.297-1.23 3.297-1.23.653 1.653.242 2.874.118 3.176.77.84 1.235 1.911 1.235 3.221 0 4.609-2.807 5.624-5.479 5.921.43.372.823 1.102.823 2.222v3.293c0 .319.192.694.801.576 4.765-1.589 8.199-6.086 8.199-11.386 0-6.627-5.373-12-12-12z" />
<symbol id="icon-arrow-left-1" viewBox="0 0 32 32">
<path  fill = "#000" stroke-linejoin="round" stroke-linecap="round" stroke-miterlimit="4" stroke-width="2.6667" d="M25.333 16h-18.667"></path>
<path  stroke-linejoin="round" stroke-linecap="round" stroke-miterlimit="4" stroke-width="2.6667" d="M16 25.334l-9.333-9.333 9.333-9.333"></path>
</symbol>
<symbol id="icon-brightness-highsvg" fill="#fff" viewBox="0 0 32 32">
<path d="M16 22c-3.314 0-6-2.686-6-6s2.686-6 6-6v0c3.314 0 6 2.686 6 6s-2.686 6-6 6v0zM16 24c4.418 0 8-3.582 8-8s-3.582-8-8-8v0c-4.418 0-8 3.582-8 8s3.582 8 8 8v0zM16 0c0.552 0 1 0.448 1 1v0 4c0 0.552-0.448 1-1 1s-1-0.448-1-1v0-4c0-0.552 0.448-1 1-1v0zM16 26c0.552 0 1 0.448 1 1v0 4c0 0.552-0.448 1-1 1s-1-0.448-1-1v0-4c0-0.552 0.448-1 1-1v0zM32 16c0 0.552-0.448 1-1 1v0h-4c-0.552 0-1-0.448-1-1s0.448-1 1-1v0h4c0.552 0 1 0.448 1 1v0zM6 16c0 0.552-0.448 1-1 1v0h-4c-0.552 0-1-0.448-1-1s0.448-1 1-1v0h4c0.552 0 1 0.448 1 1v0zM27.314 4.686c0.181 0.181 0.293 0.431 0.293 0.707s-0.112 0.526-0.293 0.707l-2.828 2.83c-0.181 0.181-0.431 0.293-0.707 0.293-0.553 0-1.001-0.448-1.001-1.001 0-0.277 0.112-0.527 0.294-0.708v0l2.828-2.828c0.181-0.181 0.431-0.293 0.707-0.293s0.526 0.112 0.707 0.293v0zM8.928 23.072c0.181 0.181 0.293 0.431 0.293 0.707s-0.112 0.526-0.293 0.707l-2.828 2.828c-0.18 0.174-0.425 0.281-0.695 0.281-0.552 0-1-0.448-1-1 0-0.27 0.107-0.515 0.281-0.695l2.828-2.828c0.181-0.181 0.431-0.293 0.707-0.293s0.526 0.112 0.707 0.293v0zM27.314 27.314c-0.181 0.181-0.431 0.293-0.707 0.293s-0.526-0.112-0.707-0.293l-2.828-2.828c-0.174-0.18-0.281-0.425-0.281-0.695 0-0.552 0.448-1 1-1 0.27 0 0.515 0.107 0.695 0.281l2.828 2.828c0.181 0.181 0.293 0.431 0.293 0.707s-0.112 0.526-0.293 0.707v0zM8.928 8.93c-0.181 0.181-0.431 0.293-0.707 0.293s-0.526-0.112-0.707-0.293v0l-2.828-2.83c-0.188-0.182-0.305-0.437-0.305-0.719 0-0.552 0.448-1 1-1 0.282 0 0.537 0.117 0.719 0.305l2.828 2.828c0.181 0.181 0.294 0.431 0.294 0.708s-0.112 0.527-0.294 0.708l-0 0z"></path>
</symbol>
<symbol id="icon-icons8-sun-2-1" fill="#fff" viewBox="0 0 32 32">
<path d="M15.99 2.551c-0.349 0.006-0.63 0.29-0.63 0.64 0 0.003 0 0.006 0 0.010v-0 3.84c0 0.353 0.287 0.64 0.64 0.64s0.64-0.287 0.64-0.64v0-3.84c0-0.003 0-0.006 0-0.009 0-0.353-0.287-0.64-0.64-0.64-0.004 0-0.007 0-0.011 0h0.001zM6.97 6.33c-0.353 0.001-0.639 0.287-0.639 0.64 0 0.18 0.074 0.342 0.193 0.458l2.688 2.688c0.117 0.121 0.28 0.195 0.46 0.195 0.353 0 0.64-0.287 0.64-0.64 0-0.181-0.075-0.344-0.195-0.46l-2.688-2.688c-0.116-0.119-0.279-0.193-0.458-0.193-0 0-0.001 0-0.001 0h0zM25.012 6.33c-0.173 0.005-0.328 0.078-0.44 0.193l-2.688 2.688c-0.121 0.117-0.195 0.28-0.195 0.46 0 0.353 0.287 0.64 0.64 0.64 0.181 0 0.344-0.075 0.46-0.195l2.688-2.688c0.119-0.116 0.194-0.279 0.194-0.458 0-0.353-0.287-0.64-0.64-0.64-0.007 0-0.013 0-0.020 0l0.001-0zM16 9.6c-0.002-0-0.005-0-0.007-0-0.092 0-0.179 0.019-0.258 0.054l0.004-0.002c-3.412 0.145-6.139 2.899-6.139 6.348 0 3.541 2.859 6.4 6.4 6.4s6.4-2.859 6.4-6.4c0-3.448-2.726-6.202-6.138-6.348-0.075-0.033-0.162-0.053-0.254-0.053-0.003 0-0.006 0-0.009 0h0zM3.2 15.36c-0.353 0-0.64 0.287-0.64 0.64s0.287 0.64 0.64 0.64v0h3.84c0.353 0 0.64-0.287 0.64-0.64s-0.287-0.64-0.64-0.64v0h-3.84zM24.96 15.36c-0.353 0-0.64 0.287-0.64 0.64s0.287 0.64 0.64 0.64v0h3.84c0.353 0 0.64-0.287 0.64-0.64s-0.287-0.64-0.64-0.64v0h-3.84zM9.651 21.69c-0.173 0.005-0.328 0.079-0.44 0.194l-2.688 2.688c-0.121 0.117-0.195 0.28-0.195 0.46 0 0.353 0.287 0.64 0.64 0.64 0.181 0 0.344-0.075 0.46-0.195l2.688-2.688c0.119-0.116 0.194-0.279 0.194-0.459 0-0.353-0.287-0.64-0.64-0.64-0.007 0-0.013 0-0.020 0l0.001-0zM22.329 21.69c-0.353 0-0.639 0.287-0.639 0.64 0 0.18 0.074 0.342 0.194 0.459l2.688 2.688c0.117 0.121 0.28 0.195 0.46 0.195 0.353 0 0.64-0.287 0.64-0.64 0-0.181-0.075-0.344-0.195-0.46l-2.688-2.688c-0.116-0.119-0.279-0.193-0.458-0.193-0 0-0.001 0-0.001 0h0zM15.99 24.311c-0.349 0.006-0.63 0.29-0.63 0.64 0 0.003 0 0.006 0 0.010v-0 3.84c0 0.353 0.287 0.64 0.64 0.64s0.64-0.287 0.64-0.64v0-3.84c0-0.003 0-0.006 0-0.009 0-0.353-0.287-0.64-0.64-0.64-0.004 0-0.007 0-0.011 0h0.001z"></path>
</symbol>
<symbol id="icon-moon-stars-fill" fill="#fff" viewBox="0 0 32 32">
<path d="M12 0.556c0.218 0.263 0.35 0.604 0.35 0.976 0 0.271-0.070 0.526-0.194 0.748l0.004-0.008c-1.105 1.992-1.756 4.367-1.756 6.895 0 0.009 0 0.017 0 0.026v-0.001c0 8.042 6.556 14.554 14.636 14.554 1.054 0 2.080-0.11 3.066-0.32 0.1-0.023 0.215-0.036 0.333-0.036 0.53 0 0.998 0.262 1.284 0.663l0.003 0.005c0.171 0.237 0.273 0.533 0.273 0.853 0 0.356-0.127 0.682-0.337 0.936l0.002-0.002c-3.086 3.769-7.739 6.156-12.95 6.156-0.009 0-0.019 0-0.028-0h0.001c-9.22 0-16.688-7.428-16.688-16.58 0-6.888 4.228-12.796 10.248-15.3 0.173-0.075 0.374-0.119 0.585-0.119 0.469 0 0.889 0.215 1.164 0.552l0.002 0.003z"></path>
<path d="M21.588 6.296c0.059-0.174 0.221-0.298 0.412-0.298s0.353 0.123 0.411 0.295l0.001 0.003 0.774 2.324c0.346 1.036 1.158 1.848 2.194 2.194l2.324 0.774c0.174 0.059 0.298 0.221 0.298 0.412s-0.123 0.353-0.295 0.411l-0.003 0.001-2.324 0.774c-1.038 0.353-1.841 1.156-2.187 2.17l-0.007 0.024-0.774 2.324c-0.059 0.174-0.221 0.298-0.412 0.298s-0.353-0.123-0.411-0.295l-0.001-0.003-0.774-2.324c-0.353-1.038-1.156-1.841-2.17-2.187l-0.024-0.007-2.324-0.774c-0.174-0.059-0.298-0.221-0.298-0.412s0.123-0.353 0.295-0.411l0.003-0.001 2.324-0.774c1.038-0.353 1.841-1.156 2.187-2.17l0.007-0.024 0.774-2.324zM27.726 0.198c0.041-0.114 0.148-0.195 0.274-0.195s0.233 0.081 0.273 0.193l0.001 0.002 0.516 1.548c0.23 0.692 0.772 1.234 1.464 1.464l1.548 0.516c0.114 0.041 0.195 0.148 0.195 0.274s-0.081 0.233-0.193 0.273l-0.002 0.001-1.548 0.516c-0.693 0.235-1.229 0.771-1.459 1.448l-0.005 0.016-0.516 1.548c-0.041 0.114-0.148 0.195-0.274 0.195s-0.233-0.081-0.273-0.193l-0.001-0.002-0.516-1.548c-0.235-0.693-0.771-1.229-1.448-1.459l-0.016-0.005-1.548-0.516c-0.114-0.041-0.195-0.148-0.195-0.274s0.081-0.233 0.193-0.273l0.002-0.001 1.548-0.516c0.692-0.23 1.234-0.772 1.464-1.464l0.516-1.546z"></path>
</symbol>
<symbol id="icon-arrow-left" viewBox="0 0 32 32">
<path  stroke-linejoin="round" stroke-linecap="round" stroke-miterlimit="4" stroke-width="2.6667" d="M6.667 16h18.667"></path>
<path  stroke-linejoin="round" stroke-linecap="round" stroke-miterlimit="4" stroke-width="2.6667" d="M16 25.334l9.333-9.333-9.333-9.333"></path>
</symbol>
<symbol id="icon-close_menu" viewBox="0 0 32 32">
<path d="M23.734 10.304l-1.504-1.504-5.963 5.962-5.962-5.962-1.504 1.504 5.962 5.962-5.962 5.963 1.504 1.504 5.962-5.963 5.963 5.963 1.504-1.504-5.963-5.963 5.963-5.962z"></path>
</symbol>
<symbol id="scroll-up-icon" viewBox="0 0 32 32">
    <path
        d="M27.414 12.586l-10-10c-0.781-0.781-2.047-0.781-2.828 0l-10 10c-0.781 0.781-0.781 2.047 0 2.828s2.047 0.781 2.828 0l6.586-6.586v19.172c0 1.105 0.895 2 2 2s2-0.895 2-2v-19.172l6.586 6.586c0.39 0.39 0.902 0.586 1.414 0.586s1.024-0.195 1.414-0.586c0.781-0.781 0.781-2.047 0-2.828z">
    </path>
</symbol>
</defs>
</svg>
