<svg aria-hidden="true" style="position: absolute; width: 0; height: 0; overflow: hidden;" version="1.1" xmlns="http://www.w3.org/2000/svg" xmlns:xlink="http://www.w3.org/1999/xlink">
<defs>
<symbol id="icon-Group" viewBox="0 0 34 32">
<path fill="#f7fb1f" style="fill: var(--color1, #f7fb1f)" d="M17.231 31.705l-2.412-2.412c-8.96-7.926-14.818-13.268-14.818-19.815 0-5.342 4.135-9.477 9.477-9.477 2.929 0 5.858 1.378 7.754 3.618 1.895-2.24 4.825-3.618 7.754-3.618 5.342 0 9.477 4.135 9.477 9.477 0 6.548-5.858 11.889-14.818 19.815l-2.412 2.412z"></path>
</symbol>
<symbol id="icon-search-2" viewBox="0 0 32 32">
<path fill="none" stroke="#fff" style="stroke: var(--color2, #fff)" stroke-linejoin="round" stroke-linecap="round" stroke-miterlimit="4" stroke-width="2.6667" d="M14.667 25.333c5.891 0 10.667-4.776 10.667-10.667s-4.776-10.667-10.667-10.667c-5.891 0-10.667 4.776-10.667 10.667s4.776 10.667 10.667 10.667z"></path>
<path fill="none" stroke="#fff" style="stroke: var(--color2, #fff)" stroke-linejoin="round" stroke-linecap="round" stroke-miterlimit="4" stroke-width="2.6667" d="M28 28.001l-5.8-5.8"></path>
</symbol>
<symbol id="icon-film" viewBox="0 0 32 32">
<path fill="none" stroke="#fff" style="stroke: var(--color2, #fff)" stroke-linejoin="round" stroke-linecap="round" stroke-miterlimit="4" stroke-width="2.6667" d="M26.427 2.667h-20.853c-1.605 0-2.907 1.301-2.907 2.907v20.853c0 1.605 1.301 2.907 2.907 2.907h20.853c1.605 0 2.907-1.301 2.907-2.907v-20.853c0-1.605-1.301-2.907-2.907-2.907z"></path>
<path fill="none" stroke="#fff" style="stroke: var(--color2, #fff)" stroke-linejoin="round" stroke-linecap="round" stroke-miterlimit="4" stroke-width="2.6667" d="M9.333 2.667v26.667"></path>
<path fill="none" stroke="#fff" style="stroke: var(--color2, #fff)" stroke-linejoin="round" stroke-linecap="round" stroke-miterlimit="4" stroke-width="2.6667" d="M22.667 2.667v26.667"></path>
<path fill="none" stroke="#fff" style="stroke: var(--color2, #fff)" stroke-linejoin="round" stroke-linecap="round" stroke-miterlimit="4" stroke-width="2.6667" d="M2.667 16h26.667"></path>
<path fill="none" stroke="#fff" style="stroke: var(--color2, #fff)" stroke-linejoin="round" stroke-linecap="round" stroke-miterlimit="4" stroke-width="2.6667" d="M2.667 9.333h6.667"></path>
<path fill="none" stroke="#fff" style="stroke: var(--color2, #fff)" stroke-linejoin="round" stroke-linecap="round" stroke-miterlimit="4" stroke-width="2.6667" d="M2.667 22.667h6.667"></path>
<path fill="none" stroke="#fff" style="stroke: var(--color2, #fff)" stroke-linejoin="round" stroke-linecap="round" stroke-miterlimit="4" stroke-width="2.6667" d="M22.667 22.667h6.667"></path>
<path fill="none" stroke="#fff" style="stroke: var(--color2, #fff)" stroke-linejoin="round" stroke-linecap="round" stroke-miterlimit="4" stroke-width="2.6667" d="M22.667 9.333h6.667"></path>
</symbol>
<symbol id="icon-arrow-right2" viewBox="0 0 32 32">
<path d="M19.414 27.414l10-10c0.781-0.781 0.781-2.047 0-2.828l-10-10c-0.781-0.781-2.047-0.781-2.828 0s-0.781 2.047 0 2.828l6.586 6.586h-19.172c-1.105 0-2 0.895-2 2s0.895 2 2 2h19.172l-6.586 6.586c-0.39 0.39-0.586 0.902-0.586 1.414s0.195 1.024 0.586 1.414c0.781 0.781 2.047 0.781 2.828 0z"></path>

</symbol>
<symbol id="icon-arrow-left2" viewBox="0 0 32 32">
<path d="M12.586 27.414l-10-10c-0.781-0.781-0.781-2.047 0-2.828l10-10c0.781-0.781 2.047-0.781 2.828 0s0.781 2.047 0 2.828l-6.586 6.586h19.172c1.105 0 2 0.895 2 2s-0.895 2-2 2h-19.172l6.586 6.586c0.39 0.39 0.586 0.902 0.586 1.414s-0.195 1.024-0.586 1.414c-0.781 0.781-2.047 0.781-2.828 0z"></path>
</symbol>
<symbol id="movie-logo-favicon" viewBox="0 0 32 32">
<path fill="#f00" style="fill: var(--color1, #f00)" d="M8.254 27.555h15.493c0.467 0 0.846-0.379 0.846-0.846v-8.876c0-0.467-0.379-0.846-0.846-0.846h-15.493c-0.467 0-0.846 0.379-0.846 0.846v8.876c0 0.467 0.379 0.846 0.846 0.846zM9.099 18.679h13.801v7.185h-13.801v-7.185z"></path>
<path fill="#f00" style="fill: var(--color1, #f00)" d="M3.247 1.245h-2.402c-0.467 0-0.846 0.379-0.846 0.846v27.819c0 0.467 0.379 0.846 0.846 0.846h2.402c0.467 0 0.846-0.379 0.846-0.846v-0.413h0.947v0.413c0 0.467 0.379 0.846 0.846 0.846h20.228c0.467 0 0.846-0.379 0.846-0.846v-0.413h0.947v0.413c0 0.467 0.379 0.846 0.846 0.846h2.402c0.467 0 0.846-0.379 0.846-0.846v-27.819c0-0.467-0.379-0.846-0.846-0.846h-2.402c-0.467 0-0.846 0.379-0.846 0.846v0.332h-0.947v-0.332c0-0.467-0.379-0.846-0.846-0.846h-20.228c-0.467 0-0.846 0.379-0.846 0.846v0.332h-0.947v-0.332c0-0.467-0.372-0.846-0.846-0.846zM5.886 4.113c0.467 0 0.846-0.379 0.846-0.846v-0.332h18.537v0.332c0 0.467 0.379 0.846 0.846 0.846h2.638c0.467 0 0.846-0.379 0.846-0.846v-0.332h0.71v26.128h-0.71v-0.413c0-0.467-0.379-0.846-0.846-0.846h-2.638c-0.467 0-0.846 0.379-0.846 0.846v0.413h-18.537v-0.413c0-0.467-0.379-0.846-0.846-0.846h-2.638c-0.467 0-0.846 0.379-0.846 0.846v0.413h-0.71v-26.128h0.71v0.332c0 0.467 0.379 0.846 0.846 0.846h2.638z"></path>
<path fill="#f00" style="fill: var(--color1, #f00)" d="M8.254 15.012h15.493c0.467 0 0.846-0.379 0.846-0.846v-8.876c0-0.467-0.379-0.846-0.846-0.846h-15.493c-0.467 0-0.846 0.379-0.846 0.846v8.876c0 0.467 0.379 0.846 0.846 0.846zM9.099 6.143h13.801v7.185h-13.801v-7.185z"></path>
<path fill="#f00" style="fill: var(--color1, #f00)" d="M3.904 25.417h1.326c0.244 0 0.447-0.203 0.447-0.447v-1.204c0-0.244-0.203-0.447-0.447-0.447h-1.326c-0.244 0-0.446 0.203-0.446 0.447v1.204c0 0.244 0.203 0.447 0.446 0.447z"></path>
<path fill="#f00" style="fill: var(--color1, #f00)" d="M3.904 19.836h1.326c0.244 0 0.447-0.203 0.447-0.447v-1.204c0-0.244-0.203-0.447-0.447-0.447h-1.326c-0.244 0-0.446 0.203-0.446 0.447v1.204c0 0.25 0.203 0.447 0.446 0.447z"></path>
<path fill="#f00" style="fill: var(--color1, #f00)" d="M3.904 14.261h1.326c0.244 0 0.447-0.203 0.447-0.447v-1.204c0-0.244-0.203-0.447-0.447-0.447h-1.326c-0.244 0-0.446 0.203-0.446 0.447v1.204c0 0.244 0.203 0.447 0.446 0.447z"></path>
<path fill="#f00" style="fill: var(--color1, #f00)" d="M3.904 8.68h1.326c0.244 0 0.447-0.203 0.447-0.447v-1.204c0-0.244-0.203-0.447-0.447-0.447h-1.326c-0.244 0-0.446 0.203-0.446 0.447v1.204c0 0.25 0.203 0.447 0.446 0.447z"></path>
<path fill="#f00" style="fill: var(--color1, #f00)" d="M26.77 25.417h1.326c0.244 0 0.447-0.203 0.447-0.447v-1.204c0-0.244-0.203-0.447-0.447-0.447h-1.326c-0.244 0-0.447 0.203-0.447 0.447v1.204c0 0.244 0.196 0.447 0.447 0.447z"></path>
<path fill="#f00" style="fill: var(--color1, #f00)" d="M26.77 19.836h1.326c0.244 0 0.447-0.203 0.447-0.447v-1.204c0-0.244-0.203-0.447-0.447-0.447h-1.326c-0.244 0-0.447 0.203-0.447 0.447v1.204c0 0.25 0.196 0.447 0.447 0.447z"></path>
<path fill="#f00" style="fill: var(--color1, #f00)" d="M26.77 14.261h1.326c0.244 0 0.447-0.203 0.447-0.447v-1.204c0-0.244-0.203-0.447-0.447-0.447h-1.326c-0.244 0-0.447 0.203-0.447 0.447v1.204c0 0.244 0.196 0.447 0.447 0.447z"></path>
<path fill="#f00" style="fill: var(--color1, #f00)" d="M26.77 8.68h1.326c0.244 0 0.447-0.203 0.447-0.447v-1.204c0-0.244-0.203-0.447-0.447-0.447h-1.326c-0.244 0-0.447 0.203-0.447 0.447v1.204c0 0.25 0.196 0.447 0.447 0.447z"></path>
</symbol>
<symbol id="github-icon" viewBox="0 0 24 24">
    <path
        d="M12 0c-6.626 0-12 5.373-12 12 0 5.302 3.438 9.8 8.207 11.387.599.111.793-.261.793-.577v-2.234c-3.338.726-4.033-1.416-4.033-1.416-.546-1.387-1.333-1.756-1.333-1.756-1.089-.745.083-.729.083-.729 1.205.084 1.839 1.237 1.839 1.237 1.07 1.834 2.807 1.304 3.492.997.107-.775.418-1.305.762-1.604-2.665-.305-5.467-1.334-5.467-5.931 0-1.311.469-2.381 1.236-3.221-.124-.303-.535-1.524.117-3.176 0 0 1.008-.322 3.301 1.23.957-.266 1.983-.399 3.003-.404 1.02.005 2.047.138 3.006.404 2.291-1.552 3.297-1.23 3.297-1.23.653 1.653.242 2.874.118 3.176.77.84 1.235 1.911 1.235 3.221 0 4.609-2.807 5.624-5.479 5.921.43.372.823 1.102.823 2.222v3.293c0 .319.192.694.801.576 4.765-1.589 8.199-6.086 8.199-11.386 0-6.627-5.373-12-12-12z" />
<symbol id="icon-arrow-left-1" viewBox="0 0 32 32">
<path  stroke-linejoin="round" stroke-linecap="round" stroke-miterlimit="4" stroke-width="2.6667" d="M25.333 16h-18.667"></path>
<path  stroke-linejoin="round" stroke-linecap="round" stroke-miterlimit="4" stroke-width="2.6667" d="M16 25.334l-9.333-9.333 9.333-9.333"></path>
</symbol>
<symbol id="icon-arrow-left" viewBox="0 0 32 32">
<path  stroke-linejoin="round" stroke-linecap="round" stroke-miterlimit="4" stroke-width="2.6667" d="M6.667 16h18.667"></path>
<path  stroke-linejoin="round" stroke-linecap="round" stroke-miterlimit="4" stroke-width="2.6667" d="M16 25.334l9.333-9.333-9.333-9.333"></path>
</symbol>
<symbol id="icon-close_menu" viewBox="0 0 32 32">
<path d="M23.734 10.304l-1.504-1.504-5.963 5.962-5.962-5.962-1.504 1.504 5.962 5.962-5.962 5.963 1.504 1.504 5.962-5.963 5.963 5.963 1.504-1.504-5.963-5.963 5.963-5.962z"></path>
</symbol>
<symbol id="scroll-up-icon" viewBox="0 0 32 32">
    <path
        d="M27.414 12.586l-10-10c-0.781-0.781-2.047-0.781-2.828 0l-10 10c-0.781 0.781-0.781 2.047 0 2.828s2.047 0.781 2.828 0l6.586-6.586v19.172c0 1.105 0.895 2 2 2s2-0.895 2-2v-19.172l6.586 6.586c0.39 0.39 0.902 0.586 1.414 0.586s1.024-0.195 1.414-0.586c0.781-0.781 0.781-2.047 0-2.828z">
    </path>
</symbol>
</defs>
</svg>
